HIERARCHY
ROOT root
{
	OFFSET 0.000000 0.000000 0.000000
	CHANNELS 6 Xposition Yposition Zposition Zrotation Yrotation Xrotation
	JOINT lhip
	{
		OFFSET 0.058581 -0.082280 -0.017664
		CHANNELS 3 Zrotation Yrotation Xrotation
		JOINT lknee
		{
			OFFSET 0.043451 -0.386469 0.008037
			CHANNELS 3 Zrotation Yrotation Xrotation
			JOINT lankle
			{
				OFFSET -0.014790 -0.426874 -0.037428
				CHANNELS 3 Zrotation Yrotation Xrotation
				JOINT ltoe
				{
					OFFSET 0.041054 -0.060286 0.122042
					CHANNELS 3 Zrotation Yrotation Xrotation
					End Site
					{
						OFFSET 0.000000 0.000000 0.000000
					}
				}
			}
		}
	}
	JOINT rhip
	{
		OFFSET -0.060310 -0.090513 -0.013543
		CHANNELS 3 Zrotation Yrotation Xrotation
		JOINT rknee
		{
			OFFSET -0.043257 -0.383688 -0.004843
			CHANNELS 3 Zrotation Yrotation Xrotation
			JOINT rankle
			{
				OFFSET 0.019056 -0.420046 -0.034562
				CHANNELS 3 Zrotation Yrotation Xrotation
				JOINT rtoe
				{
					OFFSET -0.034840 -0.062106 0.130323
					CHANNELS 3 Zrotation Yrotation Xrotation
					End Site
					{
						OFFSET 0.000000 0.000000 0.000000
					}
				}
			}
		}
	}
	JOINT lowerback
	{
		OFFSET 0.004439 0.124404 -0.038385
		CHANNELS 3 Zrotation Yrotation Xrotation
		JOINT upperback
		{
			OFFSET 0.004488 0.137956 0.026820
			CHANNELS 3 Zrotation Yrotation Xrotation
			JOINT chest
			{
				OFFSET -0.002265 0.056032 0.002855
				CHANNELS 3 Zrotation Yrotation Xrotation
				JOINT lowerneck
				{
					OFFSET -0.013390 0.211636 -0.033468
					CHANNELS 3 Zrotation Yrotation Xrotation
					JOINT upperneck
					{
						OFFSET 0.010113 0.088937 0.050410
						CHANNELS 3 Zrotation Yrotation Xrotation
						End Site
						{
							OFFSET 0.000000 0.000000 0.000000
						}
					}
				}
				JOINT lclavicle
				{
					OFFSET 0.071702 0.114000 -0.018898
					CHANNELS 3 Zrotation Yrotation Xrotation
					JOINT lshoulder
					{
						OFFSET 0.122921 0.045205 -0.019046
						CHANNELS 3 Zrotation Yrotation Xrotation
						JOINT lelbow
						{
							OFFSET 0.255332 -0.015649 -0.022946
							CHANNELS 3 Zrotation Yrotation Xrotation
							JOINT lwrist
							{
								OFFSET 0.265709 0.012698 -0.007375
								CHANNELS 3 Zrotation Yrotation Xrotation
								End Site
								{
									OFFSET 0.000000 0.000000 0.000000
								}
							}
						}
					}
				}
				JOINT rclavicle
				{
					OFFSET -0.082954 0.112472 -0.023707
					CHANNELS 3 Zrotation Yrotation Xrotation
					JOINT rshoulder
					{
						OFFSET -0.113228 0.046853 -0.008472
						CHANNELS 3 Zrotation Yrotation Xrotation
						JOINT relbow
						{
							OFFSET -0.260127 -0.014369 -0.031269
							CHANNELS 3 Zrotation Yrotation Xrotation
							JOINT rwrist
							{
								OFFSET -0.269108 0.006794 -0.006027
								CHANNELS 3 Zrotation Yrotation Xrotation
								End Site
								{
									OFFSET 0.000000 0.000000 0.000000
								}
							}
						}
					}
				}
			}
		}
	}
}
MOTION
Frames: 8
Frame Time: 0.033333
0.077422 0.828534 0.573290 54.389051 -1.979150 48.896871 9.710817 -13.568551 -51.558129 1.841477 20.208123 124.287107 1.750408 3.192415 -24.359737 0.000000 -0.000000 0.000000 -11.711765 7.927904 -44.789802 -5.638351 -10.173026 118.935673 0.897833 -1.778443 -25.139404 0.000000 -0.000000 0.000000 0.528825 3.139263 46.347590 2.507915 -3.027957 13.195854 -3.348130 -0.618481 -2.190237 -1.930739 2.833867 0.932504 2.268250 -5.812245 -8.006880 -25.872100 -18.843481 8.035314 -61.136971 -6.089942 7.234109 20.022230 -35.832806 -13.534158 -15.526202 -14.075885 -6.819645 28.567702 15.740194 5.283472 63.567097 5.459599 5.887897 -27.331940 31.650843 -18.700384 15.020400 3.711883 -3.504644 
0.077744 0.828819 0.573255 54.031871 -1.790861 48.729116 9.558854 -13.069787 -51.241287 1.652953 19.644894 124.302127 1.632068 3.336075 -24.654047 0.000000 -0.000000 0.000000 -11.145931 7.977736 -44.648566 -5.356636 -9.971909 118.900620 0.953490 -1.850122 -25.054533 0.000000 -0.000000 0.000000 0.061534 2.924358 46.119376 2.378092 -3.337650 13.228507 -2.724190 -0.073382 -1.676788 -2.499622 2.730205 1.101900 2.574052 -5.193209 -8.751913 -26.230135 -18.906845 7.500962 -61.405620 -5.518142 6.994774 20.424943 -35.872466 -13.318722 -14.654595 -14.256196 -7.339004 28.178463 16.965740 6.450740 63.224014 5.680574 5.539523 -27.243156 32.080022 -18.132969 13.959528 3.932683 -4.260767 
0.078167 0.829103 0.573288 53.752285 -1.683036 48.609663 9.696106 -12.933719 -50.997371 1.565042 19.550481 124.177735 1.520264 3.435023 -25.427293 0.000000 -0.000000 0.000000 -10.672514 7.911118 -44.501867 -5.101427 -9.714586 118.843379 0.989121 -1.973762 -24.907293 0.000000 -0.000000 0.000000 -0.718557 2.850862 45.683955 2.389648 -3.669975 13.697962 -1.869052 0.554285 -1.404164 -3.542116 2.186382 1.444574 2.990800 -4.131507 -9.639353 -26.802955 -19.040707 7.193231 -61.637264 -5.033804 6.489804 20.908595 -36.136769 -13.637796 -14.345863 -13.888400 -7.163148 27.680569 18.277092 7.534768 62.773084 5.847494 4.719297 -27.208640 32.672917 -18.462710 13.831138 3.929047 -4.496571 
0.078520 0.829709 0.573033 53.468852 -1.826762 48.190034 9.708668 -12.802026 -50.528102 1.593054 19.472620 124.105258 1.713254 3.427688 -26.088052 0.000000 -0.000000 0.000000 -10.271084 7.997105 -44.043166 -4.768537 -9.371276 118.769640 0.911557 -1.941850 -24.866432 0.000000 -0.000000 0.000000 -1.923667 2.115249 45.493048 1.811885 -4.372358 14.683290 -1.467256 1.882370 -1.331168 -4.515764 2.274252 1.211291 3.675968 -3.342201 -10.176901 -26.752317 -18.611199 5.978699 -61.876851 -4.250696 6.055029 21.097138 -36.571593 -13.560042 -14.035901 -13.817521 -7.263175 27.614215 19.941541 8.814433 62.317191 6.499442 4.328249 -26.741572 32.616950 -18.114306 12.506991 4.111836 -3.433622 
0.078693 0.829869 0.572851 53.395820 -1.947630 48.064479 9.640387 -12.728958 -50.396568 1.645698 19.481475 124.133500 1.861802 3.422751 -25.762529 0.000000 -0.000000 0.000000 -10.269456 8.093279 -43.931150 -4.697704 -9.303751 118.762668 0.925634 -1.999404 -24.845864 0.000000 -0.000000 0.000000 -1.960980 2.118495 45.634802 1.739318 -4.328340 14.621688 -1.525960 1.943372 -1.242690 -4.490195 2.315893 1.087245 3.668716 -3.460337 -10.072634 -26.624871 -18.558927 5.916225 -61.938611 -4.331198 6.117654 20.988732 -36.543295 -13.397676 -13.839344 -13.856022 -7.336445 27.629552 19.919819 8.808358 62.327959 6.577699 4.349963 -26.795293 32.586996 -18.177282 12.410178 4.155940 -3.516501 
0.080292 0.829902 0.572770 53.223390 -1.772961 48.698602 9.698186 -12.294852 -51.328854 1.696452 18.980202 124.391693 1.363123 3.665418 -26.317017 0.000000 -0.000000 0.000000 -10.076576 7.774647 -44.481715 -4.814893 -8.977506 118.789160 1.457137 -1.687698 -24.697653 0.000000 -0.000000 0.000000 -1.274330 3.292567 48.018758 2.540268 -3.035080 8.308097 -0.179725 0.596945 0.035262 -5.691134 -0.280503 4.196887 4.450370 -2.331814 -11.390159 -28.635715 -18.255630 8.717295 -62.077327 -4.778424 5.361878 21.050845 -36.389348 -12.864955 -14.199547 -13.765483 -6.772761 26.800544 18.182506 9.047620 62.427742 5.210790 2.853464 -26.072063 33.621772 -17.965015 13.323546 4.567985 -5.301447 
0.080283 0.830124 0.572663 53.228063 -1.781742 48.658947 9.768205 -12.218795 -51.439269 1.638361 18.980924 124.482713 1.197090 3.711019 -26.535412 0.000000 -0.000000 0.000000 -10.072556 7.769868 -44.331714 -4.760483 -8.992371 118.736688 1.517908 -1.679966 -24.768647 0.000000 -0.000000 0.000000 -1.268468 3.315996 48.093211 2.573655 -3.093145 8.213333 -0.182058 0.630558 0.081884 -5.843999 -0.468321 4.396542 4.752948 -2.496401 -11.606823 -28.679084 -18.246471 8.965288 -62.046357 -4.834473 5.297542 21.057669 -36.524927 -12.627590 -14.118008 -13.841288 -7.180459 26.802076 18.170497 9.237047 62.406667 5.312302 2.739900 -25.968638 33.780487 -17.442732 13.213555 4.759814 -5.394552 
0.080743 0.830548 0.572274 53.160707 -1.976641 48.566589 9.726923 -12.165731 -51.416523 1.728473 19.089313 124.643591 1.049642 3.626018 -26.509293 0.000000 -0.000000 0.000000 -10.222629 7.828807 -44.268407 -4.686999 -8.924904 118.789352 1.616767 -1.611926 -24.720331 0.000000 -0.000000 0.000000 -1.319081 3.391891 48.035274 2.541185 -3.063150 8.397329 -0.263472 0.654492 0.229726 -5.808121 -0.331456 4.241681 4.759232 -2.647968 -11.512518 -28.567217 -18.238808 8.875792 -62.134658 -4.953218 5.433199 21.044815 -36.468859 -12.579159 -13.842786 -13.976504 -7.304032 26.761447 18.089160 9.072263 62.386700 5.331258 2.887113 -25.976336 33.876033 -17.301572 13.179305 4.938619 -5.493740 
